<svg id="Layer_1" data-name="Layer 1" xmlns="http://www.w3.org/2000/svg" viewBox="0 0 1183.19 1145.07"><defs><style>.cls-1{fill:#fff;}</style></defs><path class="cls-1" d="M1349.5,1572.53H1134.83a19.07,19.07,0,0,1-19.09-19.08V1268.24a67.06,67.06,0,0,0-67-67H951.27a67.07,67.07,0,0,0-67,67v285.21a19.07,19.07,0,0,1-19.09,19.08H650.5a80.37,80.37,0,0,1-80.28-80.28V1074.73H464.38A55.85,55.85,0,0,1,424.9,979.4L960.51,443.79a55.92,55.92,0,0,1,79,0L1575.1,979.4a55.85,55.85,0,0,1-39.48,95.33H1429.78v417.52A80.37,80.37,0,0,1,1349.5,1572.53Zm-195.58-38.17H1349.5a42.14,42.14,0,0,0,42.11-42.11V1055.64a19.08,19.08,0,0,1,19.09-19.09h124.92a17.67,17.67,0,0,0,12.49-30.16L1012.5,470.78a17.7,17.7,0,0,0-25,0L451.89,1006.39a17.67,17.67,0,0,0,12.49,30.16H589.3a19.08,19.08,0,0,1,19.09,19.09v436.61a42.14,42.14,0,0,0,42.11,42.11H846.08V1268.24a105.29,105.29,0,0,1,105.19-105.16h97.48a105.29,105.29,0,0,1,105.17,105.16Z" transform="translate(-408.41 -427.47)"/></svg>