<svg width="40" height="40" viewBox="0 0 40 40" fill="none" xmlns="http://www.w3.org/2000/svg">
<path d="M13.3333 13.333C12.8913 13.333 12.4674 13.5086 12.1548 13.8212C11.8423 14.1337 11.6667 14.5576 11.6667 14.9997C11.6667 15.4417 11.8423 15.8656 12.1548 16.1782C12.4674 16.4907 12.8913 16.6663 13.3333 16.6663H15C15.442 16.6663 15.866 16.4907 16.1785 16.1782C16.4911 15.8656 16.6667 15.4417 16.6667 14.9997C16.6667 14.5576 16.4911 14.1337 16.1785 13.8212C15.866 13.5086 15.442 13.333 15 13.333H13.3333ZM21.6667 33.333H10C9.55797 33.333 9.13405 33.1574 8.82149 32.8449C8.50893 32.5323 8.33333 32.1084 8.33333 31.6663V8.33301C8.33333 7.89098 8.50893 7.46706 8.82149 7.1545C9.13405 6.84194 9.55797 6.66634 10 6.66634H18.3333V11.6663C18.3333 12.9924 18.8601 14.2642 19.7978 15.2019C20.7355 16.1396 22.0073 16.6663 23.3333 16.6663H28.3333V19.9997C28.3333 20.4417 28.5089 20.8656 28.8215 21.1782C29.134 21.4907 29.558 21.6663 30 21.6663C30.442 21.6663 30.866 21.4907 31.1785 21.1782C31.4911 20.8656 31.6667 20.4417 31.6667 19.9997V14.9997C31.6667 14.9997 31.6667 14.9997 31.6667 14.8997C31.6493 14.7466 31.6158 14.5957 31.5667 14.4497V14.2997C31.4865 14.1283 31.3796 13.9708 31.25 13.833L21.25 3.83301C21.1122 3.70337 20.9547 3.59648 20.7833 3.51634C20.7282 3.50669 20.6718 3.50669 20.6167 3.51634C20.4546 3.42968 20.2804 3.36788 20.1 3.33301H10C8.67392 3.33301 7.40215 3.85979 6.46447 4.79747C5.52678 5.73516 5 7.00693 5 8.33301V31.6663C5 32.9924 5.52678 34.2642 6.46447 35.2019C7.40215 36.1396 8.67392 36.6663 10 36.6663H21.6667C22.1087 36.6663 22.5326 36.4907 22.8452 36.1782C23.1577 35.8656 23.3333 35.4417 23.3333 34.9997C23.3333 34.5576 23.1577 34.1337 22.8452 33.8212C22.5326 33.5086 22.1087 33.333 21.6667 33.333ZM21.6667 9.01634L25.9833 13.333H23.3333C22.8913 13.333 22.4674 13.1574 22.1548 12.8449C21.8423 12.5323 21.6667 12.1084 21.6667 11.6663V9.01634ZM23.3333 19.9997H13.3333C12.8913 19.9997 12.4674 20.1753 12.1548 20.4878C11.8423 20.8004 11.6667 21.2243 11.6667 21.6663C11.6667 22.1084 11.8423 22.5323 12.1548 22.8449C12.4674 23.1574 12.8913 23.333 13.3333 23.333H23.3333C23.7754 23.333 24.1993 23.1574 24.5118 22.8449C24.8244 22.5323 25 22.1084 25 21.6663C25 21.2243 24.8244 20.8004 24.5118 20.4878C24.1993 20.1753 23.7754 19.9997 23.3333 19.9997ZM34.5167 30.483C34.3617 30.3268 34.1774 30.2028 33.9743 30.1182C33.7712 30.0336 33.5534 29.99 33.3333 29.99C33.1133 29.99 32.8955 30.0336 32.6924 30.1182C32.4893 30.2028 32.3049 30.3268 32.15 30.483L31.6667 30.983V26.6663C31.6667 26.2243 31.4911 25.8004 31.1785 25.4878C30.866 25.1753 30.442 24.9997 30 24.9997C29.558 24.9997 29.134 25.1753 28.8215 25.4878C28.5089 25.8004 28.3333 26.2243 28.3333 26.6663V30.983L27.85 30.483C27.5362 30.1692 27.1105 29.9929 26.6667 29.9929C26.2228 29.9929 25.7972 30.1692 25.4833 30.483C25.1695 30.7968 24.9932 31.2225 24.9932 31.6663C24.9932 32.1102 25.1695 32.5358 25.4833 32.8497L28.8167 36.183C28.9752 36.3347 29.1621 36.4537 29.3667 36.533C29.5662 36.6212 29.7819 36.6667 30 36.6667C30.2181 36.6667 30.4338 36.6212 30.6333 36.533C30.8379 36.4537 31.0248 36.3347 31.1833 36.183L34.5167 32.8497C34.6729 32.6947 34.7969 32.5104 34.8815 32.3073C34.9661 32.1042 35.0097 31.8864 35.0097 31.6663C35.0097 31.4463 34.9661 31.2285 34.8815 31.0254C34.7969 30.8223 34.6729 30.6379 34.5167 30.483ZM20 29.9997C20.442 29.9997 20.8659 29.8241 21.1785 29.5115C21.4911 29.199 21.6667 28.775 21.6667 28.333C21.6667 27.891 21.4911 27.4671 21.1785 27.1545C20.8659 26.8419 20.442 26.6663 20 26.6663H13.3333C12.8913 26.6663 12.4674 26.8419 12.1548 27.1545C11.8423 27.4671 11.6667 27.891 11.6667 28.333C11.6667 28.775 11.8423 29.199 12.1548 29.5115C12.4674 29.8241 12.8913 29.9997 13.3333 29.9997H20Z" fill="white"/>
</svg>
