<svg id="Layer_1" data-name="Layer 1" xmlns="http://www.w3.org/2000/svg" viewBox="0 0 970 898.41"><defs><style>.cls-1{fill:#353535;}</style></defs><path class="cls-1" d="M876.21,860.2H961.5v-33a26.41,26.41,0,0,1,52.82,0v33h121.92v-33a26.41,26.41,0,0,1,52.81,0v33H1311v-33a26.41,26.41,0,0,1,52.82,0v33h121.88v-33a26.42,26.42,0,0,1,52.83,0v33h85.32c61,0,111.2,50.15,111.2,111.21V1588c0,61-50.15,111.2-111.2,111.2H876.21C815.15,1699.2,765,1649.05,765,1588V971.41c0-61.06,50.15-111.21,111.21-111.21ZM1538.48,913v45.21a26.42,26.42,0,0,1-52.83,0V913H1363.77v45.21a26.41,26.41,0,0,1-52.82,0V913h-121.9v45.21a26.41,26.41,0,1,1-52.81,0V913H1014.32v45.21a26.41,26.41,0,0,1-52.82,0V913H876.21a58.48,58.48,0,0,0-58.39,58.39V1588a58.48,58.48,0,0,0,58.39,58.38H1623.8a58.47,58.47,0,0,0,58.38-58.38V971.41A58.48,58.48,0,0,0,1623.8,913Z" transform="translate(-765 -800.8)"/><path class="cls-1" d="M950.59,1103.24h66.7a10.57,10.57,0,0,1,10.56,10.55v66.7a10.58,10.58,0,0,1-10.56,10.56h-66.7A10.58,10.58,0,0,1,940,1180.49v-66.7A10.58,10.58,0,0,1,950.59,1103.24Z" transform="translate(-765 -800.8)"/><path class="cls-1" d="M1128,1103.24h66.7a10.57,10.57,0,0,1,10.56,10.55v66.7a10.58,10.58,0,0,1-10.56,10.56H1128a10.58,10.58,0,0,1-10.56-10.56v-66.7A10.58,10.58,0,0,1,1128,1103.24Z" transform="translate(-765 -800.8)"/><path class="cls-1" d="M1305.36,1103.24h66.69a10.57,10.57,0,0,1,10.56,10.55v66.7a10.58,10.58,0,0,1-10.56,10.56h-66.69a10.58,10.58,0,0,1-10.57-10.56v-66.7A10.58,10.58,0,0,1,1305.36,1103.24Z" transform="translate(-765 -800.8)"/><path class="cls-1" d="M1482.73,1103.24h66.7a10.57,10.57,0,0,1,10.56,10.55v66.7a10.58,10.58,0,0,1-10.56,10.56h-66.7a10.57,10.57,0,0,1-10.55-10.56v-66.7A10.57,10.57,0,0,1,1482.73,1103.24Z" transform="translate(-765 -800.8)"/><path class="cls-1" d="M950.59,1276h66.7a10.58,10.58,0,0,1,10.56,10.56v66.69a10.58,10.58,0,0,1-10.56,10.56h-66.7A10.58,10.58,0,0,1,940,1353.2v-66.69A10.58,10.58,0,0,1,950.59,1276Z" transform="translate(-765 -800.8)"/><path class="cls-1" d="M950.59,1448.66h66.7a10.58,10.58,0,0,1,10.56,10.56v66.7a10.58,10.58,0,0,1-10.56,10.56h-66.7A10.59,10.59,0,0,1,940,1525.92v-66.7A10.58,10.58,0,0,1,950.59,1448.66Z" transform="translate(-765 -800.8)"/><path class="cls-1" d="M1128,1276h66.7a10.58,10.58,0,0,1,10.56,10.56v66.69a10.58,10.58,0,0,1-10.56,10.56H1128a10.58,10.58,0,0,1-10.56-10.56v-66.69A10.58,10.58,0,0,1,1128,1276Z" transform="translate(-765 -800.8)"/><path class="cls-1" d="M1128,1448.66h66.7a10.58,10.58,0,0,1,10.56,10.56v66.7a10.58,10.58,0,0,1-10.56,10.56H1128a10.59,10.59,0,0,1-10.56-10.56v-66.7A10.58,10.58,0,0,1,1128,1448.66Z" transform="translate(-765 -800.8)"/><path class="cls-1" d="M1305.36,1276h66.69a10.58,10.58,0,0,1,10.56,10.56v66.69a10.58,10.58,0,0,1-10.56,10.56h-66.69a10.58,10.58,0,0,1-10.57-10.56v-66.69A10.58,10.58,0,0,1,1305.36,1276Z" transform="translate(-765 -800.8)"/><path class="cls-1" d="M1305.36,1448.66h66.69a10.58,10.58,0,0,1,10.56,10.56v66.7a10.58,10.58,0,0,1-10.56,10.56h-66.69a10.59,10.59,0,0,1-10.57-10.56v-66.7A10.58,10.58,0,0,1,1305.36,1448.66Z" transform="translate(-765 -800.8)"/><path class="cls-1" d="M1482.73,1276h66.7a10.58,10.58,0,0,1,10.56,10.56v66.69a10.58,10.58,0,0,1-10.56,10.56h-66.7a10.57,10.57,0,0,1-10.55-10.56v-66.69A10.57,10.57,0,0,1,1482.73,1276Z" transform="translate(-765 -800.8)"/><path class="cls-1" d="M1482.73,1448.66h66.7a10.58,10.58,0,0,1,10.56,10.56v66.7a10.58,10.58,0,0,1-10.56,10.56h-66.7a10.58,10.58,0,0,1-10.55-10.56v-66.7A10.57,10.57,0,0,1,1482.73,1448.66Z" transform="translate(-765 -800.8)"/></svg>