<svg width="40" height="40" viewBox="0 0 40 40" fill="none" xmlns="http://www.w3.org/2000/svg">
<path d="M18.8168 25.483C18.7452 25.5622 18.6784 25.6457 18.6168 25.733C18.5538 25.8259 18.5033 25.9268 18.4668 26.033C18.4188 26.1275 18.3851 26.2286 18.3668 26.333C18.3587 26.444 18.3587 26.5554 18.3668 26.6663C18.3612 26.885 18.4069 27.1019 18.5002 27.2997C18.575 27.5065 18.6944 27.6943 18.85 27.8499C19.0055 28.0054 19.1933 28.1248 19.4002 28.1997C19.5997 28.2879 19.8154 28.3334 20.0335 28.3334C20.2516 28.3334 20.4673 28.2879 20.6668 28.1997C20.8737 28.1248 21.0615 28.0054 21.217 27.8499C21.3726 27.6943 21.492 27.5065 21.5668 27.2997C21.6408 27.097 21.6748 26.8819 21.6668 26.6663C21.6681 26.447 21.6261 26.2296 21.5431 26.0265C21.4602 25.8234 21.338 25.6387 21.1835 25.483C21.0286 25.3268 20.8442 25.2028 20.6411 25.1182C20.438 25.0336 20.2202 24.99 20.0002 24.99C19.7802 24.99 19.5623 25.0336 19.3592 25.1182C19.1561 25.2028 18.9718 25.3268 18.8168 25.483ZM20.0002 3.33301C16.7038 3.33301 13.4815 4.31049 10.7407 6.14185C7.99985 7.9732 5.86364 10.5762 4.60218 13.6216C3.34072 16.6671 3.01066 20.0182 3.65375 23.2512C4.29684 26.4842 5.88418 29.4539 8.21506 31.7848C10.5459 34.1157 13.5156 35.703 16.7487 36.3461C19.9817 36.9892 23.3328 36.6591 26.3782 35.3977C29.4237 34.1362 32.0266 32 33.858 29.2592C35.6894 26.5184 36.6668 23.296 36.6668 19.9997C36.6668 17.811 36.2357 15.6437 35.3982 13.6216C34.5606 11.5995 33.3329 9.7622 31.7853 8.21456C30.2376 6.66692 28.4003 5.43926 26.3782 4.60168C24.3561 3.7641 22.1889 3.33301 20.0002 3.33301V3.33301ZM20.0002 33.333C17.3631 33.333 14.7852 32.551 12.5926 31.0859C10.3999 29.6209 8.69095 27.5385 7.68178 25.1021C6.67261 22.6658 6.40856 19.9849 6.92303 17.3985C7.4375 14.8121 8.70738 12.4363 10.5721 10.5716C12.4368 8.70688 14.8126 7.43701 17.399 6.92254C19.9854 6.40807 22.6663 6.67211 25.1026 7.68128C27.539 8.69045 29.6213 10.3994 31.0864 12.5921C32.5515 14.7847 33.3335 17.3626 33.3335 19.9997C33.3335 23.5359 31.9287 26.9273 29.4283 29.4278C26.9278 31.9283 23.5364 33.333 20.0002 33.333V33.333ZM20.0002 11.6663C19.1219 11.6658 18.2591 11.8965 17.4984 12.3354C16.7376 12.7743 16.1059 13.4058 15.6668 14.1663C15.5462 14.356 15.4653 14.5682 15.4288 14.79C15.3923 15.0118 15.4011 15.2387 15.4546 15.457C15.508 15.6753 15.6051 15.8806 15.74 16.0604C15.8748 16.2402 16.0447 16.3909 16.2393 16.5034C16.4339 16.6159 16.6493 16.6879 16.8724 16.715C17.0955 16.7421 17.3219 16.7238 17.5377 16.6611C17.7536 16.5985 17.9546 16.4929 18.1286 16.3505C18.3026 16.2082 18.446 16.0322 18.5502 15.833C18.697 15.5787 18.9085 15.3676 19.1631 15.2213C19.4177 15.075 19.7065 14.9985 20.0002 14.9997C20.4422 14.9997 20.8661 15.1753 21.1787 15.4878C21.4912 15.8004 21.6668 16.2243 21.6668 16.6663C21.6668 17.1084 21.4912 17.5323 21.1787 17.8449C20.8661 18.1574 20.4422 18.333 20.0002 18.333C19.5581 18.333 19.1342 18.5086 18.8217 18.8212C18.5091 19.1337 18.3335 19.5576 18.3335 19.9997V21.6663C18.3335 22.1084 18.5091 22.5323 18.8217 22.8449C19.1342 23.1574 19.5581 23.333 20.0002 23.333C20.4422 23.333 20.8661 23.1574 21.1787 22.8449C21.4912 22.5323 21.6668 22.1084 21.6668 21.6663V21.3663C22.7691 20.9664 23.6958 20.1917 24.2848 19.1778C24.8738 18.1639 25.0877 16.9752 24.8892 15.8195C24.6906 14.6638 24.0922 13.6147 23.1985 12.8555C22.3048 12.0964 21.1727 11.6754 20.0002 11.6663V11.6663Z" fill="white"/>
</svg>
