<svg id="Layer_1" data-name="Layer 1" xmlns="http://www.w3.org/2000/svg" viewBox="0 0 386.12 389.1"><defs><style>.cls-1{fill:#fff;}</style></defs><path class="cls-1" d="M885.55,1032.68h-147a22.94,22.94,0,0,1-22.91-22.91V726.05a22.94,22.94,0,0,1,22.91-22.91h147a14.89,14.89,0,1,0,0-29.78h-147a52.75,52.75,0,0,0-52.69,52.69v283.72a52.75,52.75,0,0,0,52.69,52.69h147a14.89,14.89,0,1,0,0-29.78Z" transform="translate(-685.87 -673.36)"/><path class="cls-1" d="M1068.13,877.91l.24-.28.23-.27.28-.36.17-.21.28-.4.14-.2.26-.4a2.39,2.39,0,0,1,.13-.21c.08-.13.15-.27.23-.41l.13-.23c.07-.12.13-.25.2-.39l.13-.26c.06-.12.11-.24.16-.36s.1-.21.14-.32.08-.21.13-.32.09-.25.14-.37l.09-.28c0-.14.09-.28.14-.43a2.17,2.17,0,0,1,.07-.24l.12-.46a1.89,1.89,0,0,0,0-.23c0-.16.08-.32.11-.48s0-.15,0-.23.06-.32.08-.48a2.51,2.51,0,0,1,0-.27c0-.15,0-.3.05-.45l0-.35c0-.12,0-.25,0-.38s0-.42,0-.63v-.2c0-.21,0-.42,0-.63s0-.26,0-.38l0-.35c0-.15,0-.3-.05-.45a2.51,2.51,0,0,1,0-.27c0-.16,0-.32-.08-.48s0-.15,0-.23-.07-.32-.11-.48a1.89,1.89,0,0,0,0-.23l-.12-.46a2.17,2.17,0,0,1-.07-.24c0-.15-.09-.29-.14-.43l-.09-.28c0-.12-.1-.25-.14-.37s-.09-.21-.13-.32-.09-.21-.14-.32-.1-.24-.16-.36l-.13-.26c-.07-.14-.13-.27-.2-.39l-.13-.23c-.08-.14-.15-.28-.23-.41a2.39,2.39,0,0,1-.13-.21l-.26-.4-.14-.2-.28-.4-.17-.21-.28-.36-.23-.27-.24-.28-.49-.51,0,0L973.24,763a14.89,14.89,0,0,0-21.06,21.06l69,69H836.64a14.89,14.89,0,1,0,0,29.78h184.5l-69,69a14.89,14.89,0,0,0,21.06,21.06l94.38-94.38,0,0Z" transform="translate(-685.87 -673.36)"/></svg>