<svg id="Layer_1" data-name="Layer 1" xmlns="http://www.w3.org/2000/svg" viewBox="0 0 575.76 575.76"><defs><style>.cls-1{fill:#fff;fill-rule:evenodd;}</style></defs><path class="cls-1" d="M500,571.49A104.69,104.69,0,1,1,604.69,466.8,104.69,104.69,0,0,1,500,571.49Zm0,216.39C659,787.88,787.88,659,787.88,500S659,212.12,500,212.12,212.12,341,212.12,500,341,787.88,500,787.88ZM333.12,700.65a180.18,180.18,0,0,1,333.76,0A260.42,260.42,0,0,0,761,500c0-144.14-116.84-261-261-261S239,355.86,239,500A260.41,260.41,0,0,0,333.12,700.65Z" transform="translate(-212.12 -212.12)"/></svg>