<svg id="레이어_1" data-name="레이어 1" xmlns="http://www.w3.org/2000/svg" viewBox="0 0 340.17 342.63"><defs><style>.cls-1,.cls-2{fill:#fff;}.cls-2{fill-rule:evenodd;}</style></defs><path class="cls-1" d="M-465.52-97.5h162.11L-325.95-75H-465.52a36.56,36.56,0,0,0-36.43,36.43V152.31a36.56,36.56,0,0,0,36.43,36.43h190.83a36.56,36.56,0,0,0,36.44-36.43V7.8l22.53-22.54V152.31a59.1,59.1,0,0,1-59,59H-465.52a59.11,59.11,0,0,1-59-59V-38.53a59.11,59.11,0,0,1,59-59Z" transform="translate(524.49 131.35)"/><polygon class="cls-2" points="117.36 181.39 101.42 238.75 158.77 222.81 117.36 181.39 117.36 181.39"/><polygon class="cls-2" points="263.96 31.43 123.8 171.59 168.57 216.36 308.73 76.22 263.96 31.43 263.96 31.43"/><path class="cls-2" d="M-188.78-103.71-212-126.9a15.29,15.29,0,0,0-21.58,0L-252.41-108l44.77,44.77,18.86-18.86a15.28,15.28,0,0,0,0-21.58Z" transform="translate(524.49 131.35)"/></svg>