<svg id="Layer_1" data-name="Layer 1" xmlns="http://www.w3.org/2000/svg" viewBox="0 0 1291.37 871.55"><defs><style>.cls-1{fill:#fff;}</style></defs><path class="cls-1" d="M1429.19,1435.78H431.61a77.38,77.38,0,0,1-77.29-77.3V780.72a77.37,77.37,0,0,1,77.29-77.29h997.58a77.37,77.37,0,0,1,77.29,77.29v577.76A77.38,77.38,0,0,1,1429.19,1435.78ZM431.61,773.4a7.33,7.33,0,0,0-7.33,7.32v577.76a7.34,7.34,0,0,0,7.33,7.33h997.58a7.33,7.33,0,0,0,7.32-7.33V780.72a7.32,7.32,0,0,0-7.32-7.32Z" transform="translate(-354.32 -564.22)"/><path class="cls-1" d="M1568.39,1296.57H1471.5a35,35,0,1,1,0-70h96.89a7.33,7.33,0,0,0,7.33-7.32V641.52a7.34,7.34,0,0,0-7.33-7.33H570.81a7.33,7.33,0,0,0-7.32,7.33v96.89a35,35,0,1,1-70,0V641.52a77.38,77.38,0,0,1,77.29-77.3h997.58a77.38,77.38,0,0,1,77.29,77.3v577.76A77.37,77.37,0,0,1,1568.39,1296.57Z" transform="translate(-354.32 -564.22)"/><path class="cls-1" d="M1274.47,968.32H979.41a35,35,0,1,1,0-70h295.06a35,35,0,1,1,0,70Z" transform="translate(-354.32 -564.22)"/><path class="cls-1" d="M1204.5,1104.59H979.41a35,35,0,1,1,0-70H1204.5a35,35,0,1,1,0,70Z" transform="translate(-354.32 -564.22)"/><path class="cls-1" d="M1315.36,1240.86H979.41a35,35,0,1,1,0-70h335.95a35,35,0,0,1,0,70Z" transform="translate(-354.32 -564.22)"/><circle class="cls-1" cx="687.24" cy="951.07" r="82.08" transform="translate(-825.53 200.29) rotate(-45)"/><path class="cls-1" d="M687.24,1055.19A104.13,104.13,0,1,1,791.36,951.07,104.24,104.24,0,0,1,687.24,1055.19Zm0-164.16a60,60,0,1,0,60,60A60.1,60.1,0,0,0,687.24,891Z" transform="translate(-354.32 -564.22)"/><path class="cls-1" d="M843,1270.22H531.44c0-63.89,0-159.9,155.8-159.9S843,1206.33,843,1270.22Z" transform="translate(-354.32 -564.22)"/><path class="cls-1" d="M843.08,1292.26H531.44a22,22,0,0,1-22.05-22c0-33,0-78.1,22.69-115.37,26.9-44.17,79.1-66.57,155.16-66.57s128.26,22.4,155.15,66.57c22.37,36.74,22.69,81.13,22.69,114,0,.47,0,.94,0,1.41A22,22,0,0,1,843.08,1292.26Zm-289.41-44.08H820.8c-1.5-58.15-14.87-115.81-133.56-115.81S555.17,1190,553.67,1248.18Z" transform="translate(-354.32 -564.22)"/></svg>