<svg id="Layer_1" data-name="Layer 1" xmlns="http://www.w3.org/2000/svg" viewBox="0 0 471.7 484.92"><defs><style>.cls-1{fill:#fff;}</style></defs><path class="cls-1" d="M576.05,498.38A19.43,19.43,0,0,0,556.68,479H382.26a19.38,19.38,0,0,0,0,38.76H556.68A19.43,19.43,0,0,0,576.05,498.38Z" transform="translate(-264.15 -257.54)"/><path class="cls-1" d="M556.68,519.59H382.26a21.21,21.21,0,1,1,0-42.42H556.68a21.21,21.21,0,0,1,0,42.42ZM382.26,480.83a17.55,17.55,0,0,0,0,35.1H556.68a17.55,17.55,0,0,0,0-35.1Z" transform="translate(-264.15 -257.54)"/><path class="cls-1" d="M382.26,582.36a19.38,19.38,0,0,0,0,38.76h51.68a19.38,19.38,0,0,0,0-38.76Z" transform="translate(-264.15 -257.54)"/><path class="cls-1" d="M433.94,623H382.26a21.21,21.21,0,1,1,0-42.42h51.68a21.21,21.21,0,0,1,0,42.42Zm-51.68-38.76a17.55,17.55,0,0,0,0,35.1h51.68a17.55,17.55,0,0,0,0-35.1Z" transform="translate(-264.15 -257.54)"/><path class="cls-1" d="M453.31,701.87H304.74V298.13h323v216.4a19.38,19.38,0,1,0,38.75,0V278.75a19.44,19.44,0,0,0-19.38-19.38H285.36A19.44,19.44,0,0,0,266,278.75v442.5a19.44,19.44,0,0,0,19.38,19.38h168a19.38,19.38,0,1,0,0-38.76Z" transform="translate(-264.15 -257.54)"/><path class="cls-1" d="M453.31,742.46H285.36a21.24,21.24,0,0,1-21.21-21.21V278.75a21.24,21.24,0,0,1,21.21-21.21H647.11a21.24,21.24,0,0,1,21.21,21.21V514.53a21.21,21.21,0,0,1-42.42,0V300H306.57V700H453.31a21.21,21.21,0,1,1,0,42.42ZM285.36,261.2a17.57,17.57,0,0,0-17.55,17.55v442.5a17.57,17.57,0,0,0,17.55,17.55h168a17.55,17.55,0,1,0,0-35.1H302.91V296.3H629.57V514.53a17.55,17.55,0,1,0,35.09,0V278.75a17.57,17.57,0,0,0-17.55-17.55Z" transform="translate(-264.15 -257.54)"/><path class="cls-1" d="M556.68,372.42H382.26a19.38,19.38,0,0,0,0,38.76H556.68a19.38,19.38,0,0,0,0-38.76Z" transform="translate(-264.15 -257.54)"/><path class="cls-1" d="M556.68,413H382.26a21.21,21.21,0,0,1,0-42.42H556.68a21.21,21.21,0,0,1,0,42.42ZM382.26,374.25a17.55,17.55,0,0,0,0,35.1H556.68a17.55,17.55,0,0,0,0-35.1Z" transform="translate(-264.15 -257.54)"/><path class="cls-1" d="M727.53,561.69a19.42,19.42,0,0,0-27.45,1.61L593.81,681.52l-53.28-51.36a19.42,19.42,0,1,0-26.81,28.1l67.83,65.25A19,19,0,0,0,595.11,729h.64a19.36,19.36,0,0,0,13.57-6.46L728.83,589.47C736.26,581.07,735.61,568.8,727.53,561.69Z" transform="translate(-264.15 -257.54)"/><path class="cls-1" d="M595.81,730.83h-.7a20.79,20.79,0,0,1-14.86-6l-67.8-65.22a21.25,21.25,0,0,1,29.34-30.74l51.93,50,105-116.81a20.91,20.91,0,0,1,14.62-7.1,21.31,21.31,0,0,1,15.4,5.34,20.76,20.76,0,0,1,7.07,14.39,22,22,0,0,1-5.61,16L610.68,723.76a21.2,21.2,0,0,1-14.81,7.07Zm-68.66-104.2a17.64,17.64,0,0,0-12.76,5.45,17.57,17.57,0,0,0,.59,24.86l67.83,65.25a17.21,17.21,0,0,0,12.3,5h.59a17.53,17.53,0,0,0,12.22-5.8L727.47,588.24a18.24,18.24,0,0,0,4.68-13.3,17.1,17.1,0,0,0-5.83-11.88h0a17.71,17.71,0,0,0-12.77-4.43,17.33,17.33,0,0,0-12.09,5.88L593.91,684.15l-54.65-52.67A17.47,17.47,0,0,0,527.15,626.63Z" transform="translate(-264.15 -257.54)"/></svg>