<svg id="_1" data-name="1" xmlns="http://www.w3.org/2000/svg" viewBox="0 0 602.05 528.22"><defs><style>.cls-1{fill:none;stroke:#fff;stroke-linecap:round;stroke-linejoin:round;stroke-width:36px;}</style></defs><path class="cls-1" d="M325.77,128a36.92,36.92,0,0,1,36.92-36.91H670.32A36.92,36.92,0,0,1,707.24,128v221.5a36.92,36.92,0,0,1-36.92,36.92H621.1v73.83H608.8L547.27,386.4H362.69a36.92,36.92,0,0,1-36.92-36.92Z" transform="translate(-123.19 -73.07)"/><path class="cls-1" d="M325.77,214.12H178.1A36.91,36.91,0,0,0,141.19,251v221.5a36.91,36.91,0,0,0,36.91,36.92h49.23v73.83h12.3l61.53-73.83H485.74a36.92,36.92,0,0,0,36.92-36.92V386.4" transform="translate(-123.19 -73.07)"/><line class="cls-1" x1="264.11" y1="116.44" x2="522.53" y2="116.44"/><line class="cls-1" x1="264.11" y1="165.67" x2="522.53" y2="165.67"/><line class="cls-1" x1="264.11" y1="214.89" x2="436.39" y2="214.89"/></svg>