<svg xmlns="http://www.w3.org/2000/svg" width="20" height="20" viewBox="0 0 20 20">
    <path data-name="패스 71" d="M0 0h20v20H0z" style="fill:none"/>
    <path data-name="패스 72" d="m15.622 12.532-1.974-.225a1.547 1.547 0 0 0-1.275.443l-1.43 1.43A11.7 11.7 0 0 1 5.82 9.058L7.258 7.62A1.547 1.547 0 0 0 7.7 6.345l-.224-1.959A1.556 1.556 0 0 0 5.929 3.01H4.584a1.543 1.543 0 0 0-1.555 1.609 13.208 13.208 0 0 0 12.352 12.352 1.543 1.543 0 0 0 1.609-1.555v-1.345a1.541 1.541 0 0 0-1.368-1.539z"/>
</svg>
