<?xml version="1.0" encoding="UTF-8"?><svg xmlns="http://www.w3.org/2000/svg" viewBox="0 0 242.7 175.34"><defs><style>.d{fill:#79de4f;}.d,.e,.f{mix-blend-mode:multiply;}.g,.e{fill:#00abff;}.h{mix-blend-mode:lighten;}.i{isolation:isolate;}.f{fill:#fcd200;}</style></defs><g class="i"><g id="a"/><g id="b"><g id="c"><g><path class="e" d="M86.37,61.53c-3.89,0-7.44,2.1-9.46,5.42-5.2,8.55-14.61,14.28-25.33,14.28-16.73,0-30.27-13.94-29.61-30.83,.6-15.13,12.76-27.52,27.88-28.38,11.46-.66,21.64,5.25,27.11,14.3,1.99,3.28,5.48,5.35,9.32,5.35h.42c8.31,0,13.57-9.03,9.35-16.19-1.16-1.97-2.45-3.86-3.86-5.65C82.45,7.41,67.17-.44,50.1,.04,23.12,.79,1.09,22.56,.04,49.54c-1.15,29.37,22.42,53.63,51.54,53.63,16.47,0,31.15-7.75,40.6-19.8,1.28-1.64,2.47-3.36,3.55-5.14,4.44-7.33-.79-16.7-9.36-16.7h0Z"/><g class="h"><path class="d" d="M86.57,41.77c3.83,0,7.33-2.06,9.31-5.35,5.19-8.62,14.63-14.4,25.39-14.4s20.19,5.78,25.39,14.4c1.98,3.29,5.48,5.35,9.31,5.35h.42c8.31,0,13.57-9.05,9.35-16.23-1.16-1.98-2.45-3.87-3.86-5.67C152.42,7.79,137.73,.02,121.26,.02s-31.15,7.77-40.6,19.85c-1.41,1.8-2.7,3.69-3.86,5.67-4.22,7.18,1.04,16.23,9.35,16.23h.42Zm69.49,19.91c-3.89,0-7.44,2.1-9.46,5.43-5.2,8.57-14.61,14.31-25.33,14.31s-20.13-5.74-25.33-14.31c-2.02-3.33-5.57-5.43-9.46-5.43h0c-8.57,0-13.8,9.39-9.36,16.74,1.08,1.79,2.27,3.51,3.55,5.16,9.45,12.08,24.14,19.85,40.6,19.85s31.15-7.77,40.6-19.85c1.28-1.64,2.47-3.36,3.55-5.16,4.44-7.35-.79-16.74-9.36-16.74h0Z"/></g><g class="h"><path class="f" d="M191.12,0c-16.46,0-31.15,7.75-40.6,19.8-1.41,1.79-2.7,3.68-3.86,5.66-4.22,7.16,1.04,16.19,9.35,16.19h.42c3.84,0,7.33-2.07,9.32-5.35,5.47-9.05,15.65-14.96,27.11-14.3,15.11,.87,27.27,13.26,27.87,28.39,.67,16.88-12.87,30.82-29.61,30.82-10.72,0-20.13-5.72-25.33-14.28-2.02-3.33-5.57-5.42-9.46-5.42h0c-8.57,0-13.8,9.37-9.36,16.7,1.08,1.79,2.27,3.51,3.55,5.14,9.74,12.42,25.04,20.27,42.11,19.78,26.98-.77,48.99-22.56,50.03-49.53C243.79,24.24,220.24,0,191.12,0Z"/></g><g><path class="g" d="M174.61,166.43v-10.51c0-2.65,2.15-4.8,4.8-4.8s4.8,2.15,4.8,4.8v10.51c0,2.65-2.15,4.8-4.8,4.8s-4.8-2.15-4.8-4.8"/><g><path class="g" d="M61.63,172.8h-7.72c-13.38,0-23.09-9.71-23.09-23.09s9.5-23.09,23.09-23.09h7.72c2.65,0,4.8,2.15,4.8,4.8s-2.15,4.8-4.8,4.8h-7.72c-9.94,0-13.49,6.97-13.49,13.49,0,7.94,5.55,13.49,13.49,13.49h7.72c2.65,0,4.8,2.15,4.8,4.8s-2.15,4.8-4.8,4.8"/><path class="g" d="M61.63,154.28h-8.3c-2.65,0-4.8-2.15-4.8-4.8s2.15-4.8,4.8-4.8h8.3c2.65,0,4.8,2.15,4.8,4.8s-2.15,4.8-4.8,4.8"/><path class="g" d="M76.67,175.34c-2.65,0-4.8-2.15-4.8-4.8v-40.67c0-2.65,2.15-4.8,4.8-4.8s4.8,2.15,4.8,4.8v40.67c0,2.65-2.15,4.8-4.8,4.8"/></g><path class="g" d="M144.45,175.34c-2.65,0-4.8-2.15-4.8-4.8v-40.67c0-2.65,2.15-4.8,4.8-4.8s4.8,2.15,4.8,4.8v40.67c0,2.65-2.15,4.8-4.8,4.8"/><path class="g" d="M186.91,160.75c-9.81,0-17.8-7.99-17.8-17.8s7.98-17.8,17.8-17.8,17.8,7.98,17.8,17.8-7.99,17.8-17.8,17.8Zm0-25.53c-4.26,0-7.73,3.47-7.73,7.73s3.47,7.73,7.73,7.73,7.73-3.47,7.73-7.73-3.47-7.73-7.73-7.73Z"/><g><path class="g" d="M199.43,166.03h.02v-.73c0-2.65-2.15-4.8-4.8-4.8s-4.8,2.15-4.8,4.8v.73h9.59Z"/><path class="g" d="M166.57,165.64c-2.65,0-4.8,2.15-4.8,4.8s2.15,4.8,4.8,4.8h23.26v-9.61h-23.26Z"/><path class="g" d="M189.84,165.98c0-.11,0-.22,.02-.33h-.02v9.61h0v-9.27Z"/><path class="g" d="M207.24,165.64h-7.8v9.61h7.8c2.65,0,4.8-2.15,4.8-4.8s-2.15-4.8-4.8-4.8Z"/><path class="g" d="M199.45,165.98v-.33h-.02c0,.11,.02,.22,.02,.33Z"/><path class="g" d="M199.43,165.64h-9.57c0,.11-.02,.22-.02,.33v9.27h9.61v-9.27c0-.11,0-.22-.02-.33Z"/></g><path class="g" d="M76.67,144.46h10.51c2.65,0,4.8,2.15,4.8,4.8s-2.15,4.8-4.8,4.8h-10.51c-2.65,0-4.8-2.15-4.8-4.8s2.15-4.8,4.8-4.8"/><path class="g" d="M144.45,144.67h10.51c2.65,0,4.8,2.15,4.8,4.8s-2.15,4.8-4.8,4.8h-10.51c-2.65,0-4.8-2.15-4.8-4.8s2.15-4.8,4.8-4.8"/><path class="e" d="M129.41,131.34c-2.65,0-4.8,2.15-4.8,4.8v8.76h-7.76c-2.65,0-4.8,2.15-4.8,4.8s2.15,4.8,4.8,4.8h7.76v1.27c0,4.67-3.8,8.47-8.47,8.47s-8.47-3.8-8.47-8.47v-25.97c0-2.65-2.15-4.8-4.8-4.8s-4.8,2.15-4.8,4.8v25.97c0,9.97,8.11,18.08,18.08,18.08s18.08-8.11,18.08-18.08v-19.64c0-2.65-2.15-4.8-4.8-4.8Z"/></g></g></g></g></g></svg>