<?xml version="1.0" encoding="UTF-8"?><svg xmlns="http://www.w3.org/2000/svg" viewBox="0 0 265.81 192.06"><defs><style>.d{fill:#fff;stroke:#2eb0e6;stroke-miterlimit:10;stroke-width:.3px;}</style></defs><g id="a"/><g id="b"><g id="c"><g><path class="d" d="M209.24,.15c-12.76,0-24.54,4.26-34,11.43,2.27,2.14,4.38,4.43,6.3,6.88,1.69,2.15,3.24,4.43,4.63,6.78,1.21,2.05,1.96,4.26,2.25,6.51,5.64-4.74,12.9-7.6,20.82-7.6,.63,0,1.26,.02,1.9,.05,16.53,.95,29.84,14.51,30.49,31.06,.73,18.47-14.08,33.72-32.39,33.72-7.99,0-15.31-2.91-20.97-7.72-.27,2.52-1.08,5-2.47,7.29-1.29,2.13-2.72,4.21-4.26,6.17-1.91,2.44-4.02,4.73-6.27,6.86,9.46,7.16,21.23,11.41,33.98,11.41,.55,0,1.1,0,1.65-.02,29.52-.85,53.6-24.68,54.73-54.19C266.85,26.67,241.09,.15,209.24,.15Z"/><path class="d" d="M105.3,18.46c1.69,2.15,3.24,4.43,4.63,6.78,1.19,2.01,1.93,4.18,2.24,6.39,5.61-4.65,12.8-7.45,20.64-7.45s15.18,2.86,20.82,7.59c.91,.77,1.79,1.58,2.61,2.44,1.65,1.72,3.11,3.63,4.34,5.68,2.16,3.59,5.99,5.83,10.18,5.83h.46c3.83,0,7.06-1.76,9.18-4.37,2.91-3.59,3.72-8.81,1.05-13.34-1.27-2.16-2.68-4.22-4.22-6.19-1.89-2.41-3.97-4.66-6.21-6.73-.68-.62-1.37-1.23-2.08-1.82-.7-.59-1.42-1.16-2.15-1.71C157.33,4.42,145.56,.17,132.81,.17s-24.44,4.22-33.88,11.34c2.3,2.15,4.43,4.48,6.37,6.95Z"/><path class="d" d="M170.88,67.46c-.23,0-.46,0-.7,.02-3.98,.23-7.56,2.47-9.66,5.91-1.17,1.93-2.55,3.73-4.09,5.37-.84,.89-1.72,1.74-2.65,2.53-5.66,4.81-12.98,7.72-20.97,7.72s-15.16-2.85-20.8-7.57c-.28,2.46-1.09,4.89-2.45,7.13-1.29,2.13-2.72,4.21-4.26,6.17-1.94,2.47-4.08,4.79-6.37,6.95,9.44,7.11,21.18,11.34,33.88,11.34s24.54-4.26,34-11.43c.73-.55,1.45-1.12,2.15-1.71,.71-.59,1.4-1.2,2.07-1.82,2.24-2.07,4.31-4.31,6.19-6.71,1.4-1.79,2.7-3.67,3.89-5.63,4.85-8.02-.86-18.27-10.24-18.27Z"/><path class="d" d="M90.46,101.68c.73-.55,1.45-1.12,2.15-1.71,.71-.59,1.4-1.19,2.08-1.81,2.28-2.09,4.39-4.37,6.3-6.81,1.4-1.79,2.7-3.67,3.89-5.63,3.94-6.51,.91-14.5-5.39-17.27h-.02c-.18-.09-.36-.16-.55-.23-1.32-.5-2.73-.77-4.19-.77-.02,0-.03,0-.05,0s-.03,0-.05,0c-1.39,0-2.74,.25-4,.7h0c-.25,.09-.49,.19-.73,.29h-.03c-.24,.12-.48,.24-.71,.36-.1,.05-.2,.11-.3,.17-.1,.06-.21,.12-.31,.18-1.72,1.02-3.19,2.46-4.27,4.23-1.23,2.01-2.66,3.88-4.29,5.58-.83,.87-1.71,1.69-2.63,2.46-5.63,4.72-12.89,7.57-20.8,7.57-18.3,0-33.12-15.25-32.39-33.73,.66-16.55,13.96-30.1,30.5-31.05,.63-.04,1.27-.05,1.89-.05,7.84,0,15.03,2.8,20.64,7.44,.9,.75,1.77,1.55,2.59,2.39,1.39,1.43,2.65,2.99,3.76,4.66,.26,.4,.52,.79,.77,1.2,2.17,3.59,6,5.85,10.2,5.85h.45c5.03,0,9.03-3.03,10.83-7.05,1.45-3.25,1.46-7.16-.6-10.66-1.27-2.16-2.68-4.22-4.22-6.19-1.91-2.44-4.02-4.71-6.3-6.81-.68-.62-1.37-1.23-2.08-1.81-.7-.59-1.42-1.15-2.15-1.71C81.02,4.39,69.28,.17,56.57,.17c-.54,0-1.07,0-1.61,.02C25.44,1.02,1.35,24.83,.19,54.34c-1.26,32.13,24.52,58.67,56.38,58.67,12.71,0,24.44-4.22,33.88-11.34Z"/><path class="d" d="M67.57,138.6h-8.45c-14.88,0-25.26,10.39-25.26,25.26s10.63,25.26,25.26,25.26h8.45c2.9,0,5.25-2.35,5.25-5.25s-2.35-5.26-5.25-5.26h-8.45c-8.69,0-14.75-6.07-14.75-14.75,0-7.13,3.88-14.75,14.75-14.75h8.45c2.9,0,5.25-2.35,5.25-5.26s-2.35-5.26-5.25-5.26Z"/><path class="d" d="M67.57,158.36h-9.08c-2.9,0-5.26,2.35-5.26,5.26s2.35,5.26,5.26,5.26h9.08c2.9,0,5.25-2.35,5.25-5.26s-2.35-5.26-5.25-5.26Z"/><path class="d" d="M226.87,181.3h-8.53v-.37c0-2.9-2.35-5.25-5.26-5.25s-5.26,2.35-5.26,5.25v.37h-6.15v-5.58c.96,.15,1.94,.22,2.94,.22,10.74,0,19.47-8.74,19.47-19.47s-8.74-19.47-19.47-19.47-19.47,8.74-19.47,19.47c0,5.52,2.32,10.51,6.02,14.06,0,.04,0,.08,0,.12v10.64h-8.79c-2.9,0-5.25,2.35-5.25,5.25s2.35,5.25,5.25,5.25h44.49c2.9,0,5.26-2.35,5.26-5.25s-2.35-5.25-5.26-5.25Zm-22.25-33.28c4.66,0,8.46,3.79,8.46,8.46s-3.79,8.46-8.46,8.46-8.46-3.79-8.46-8.46,3.79-8.46,8.46-8.46Z"/><path class="d" d="M95.53,158.12h-6.25v-15.96c0-2.9-2.35-5.26-5.25-5.26s-5.25,2.35-5.25,5.26v44.49c0,2.9,2.35,5.25,5.25,5.25s5.25-2.35,5.25-5.25v-18.02h6.25c2.9,0,5.25-2.35,5.25-5.26s-2.35-5.26-5.25-5.26Z"/><path class="d" d="M169.68,158.36h-6.25v-16.2c0-2.9-2.35-5.26-5.25-5.26s-5.25,2.35-5.25,5.26v44.49c0,2.9,2.35,5.25,5.25,5.25s5.25-2.35,5.25-5.25v-17.78h6.25c2.9,0,5.25-2.35,5.25-5.26s-2.35-5.26-5.25-5.26Z"/><path class="d" d="M141.72,143.77c-2.9,0-5.25,2.35-5.25,5.26v9.58h-8.49c-2.9,0-5.25,2.35-5.25,5.26s2.35,5.26,5.25,5.26h8.49v1.39c0,5.11-4.16,9.27-9.27,9.27s-9.27-4.16-9.27-9.27v-28.41c0-2.9-2.35-5.25-5.25-5.25s-5.26,2.35-5.26,5.25v28.41c0,10.91,8.87,19.78,19.78,19.78s19.78-8.87,19.78-19.78v-21.48c0-2.9-2.35-5.26-5.26-5.26Z"/></g></g></g></svg>